<svg xmlns="http://www.w3.org/2000/svg" viewBox="0 0 55.6 13" fill="currentColor">
    <path d="M0-.1h4.4c2.3 0 3.4 1.4 3.4 3.8 0 3-1.6 3.7-3.7 3.7H2.9v5.5H0v-13zm3.8 5.5C4.9 5.4 5 4.8 5 3.7 5 2.7 4.9 2 3.7 2h-.8v3.4h.9zM10.4 9.9V6.5c0-2 1.2-3.1 3.2-3.1s3.1 1.1 3.1 3.1v1.9H13v1.8c0 .7.3 1 .6 1 .4 0 .7-.2.7-.9v-1h2.4v.9c0 1.9-1.2 2.8-3.1 2.8-2 0-3.2-1.1-3.2-3.1zm3.9-2.7v-.9c0-.7-.3-.9-.7-.9-.4 0-.6.2-.6 1.1v.8h1.3zM19.6 10.2V6.4c0-1.7.7-2.9 2.1-2.9.7 0 1.3.3 1.8.7V-.1h2.6v13h-2.6v-.7c-.6.6-1.2.9-1.8.9-1.4-.1-2.1-1-2.1-2.9zm3.9.9V5.3c-.2-.1-.5-.2-.7-.2-.5 0-.7.4-.7 1v4.3c0 .6.2 1 .7 1 .2 0 .5-.1.7-.3zM29.3.2H32V2h-2.6V.2zm.1 3.4H32v9.3h-2.6V3.6zM35.1 10.9V3.6h2.6v6.9c0 .4.1.7.5.7.2 0 .5-.1.8-.3V3.6h2.6v9.3H39V12c-.7.6-1.4 1-2.2 1-1.1 0-1.7-.9-1.7-2.1zM44.8 3.6h2.6v.7c.7-.7 1.4-.9 2.2-.9.7 0 1.3.4 1.6 1.1.7-.8 1.5-1.1 2.4-1.1 1.1 0 1.8.8 1.8 2.2v7.2h-2.6V6c0-.5-.2-.7-.5-.7-.2 0-.6.1-.9.3v7.3h-2.5V6c0-.5-.2-.7-.6-.7-.2 0-.6.1-.9.3v7.3h-2.6V3.6z"/>
</svg>